# xmcd
#
# Track frame offsets:
#	150
#	16750
#	28209
#	46282
#	62122
#	74549
#	88707
#	105334
#	122299
#	138826
#	156582
#
# Disc length: 2294 seconds
#
# Revision: 1
# Processed by: cddbd v1.5.2PL0 Copyright (c) Steve Scherf et al.
# Submitted via: audiograbber 1.83.01
#
DISCID=8d08f40b
DTITLE=Connie Lee Tanner - Dreams Connie Lee Tanner
DYEAR=1900
DGENRE=
TTITLE0=Dream My Life Away
TTITLE1=A Little Bit Of Love
TTITLE2=After Awhile
TTITLE3=Till A Tears Becoms A Rose
TTITLE4=Crazy
TTITLE5=If My Heart Had Windows
TTITLE6=Baby I Lied
TTITLE7=Leave My Heart Alone
TTITLE8=Like We Never Had A Broken Heart
TTITLE9=Reflections Of You
TTITLE10=You And Me
EXTD=
EXTT0=
EXTT1=
EXTT2=
EXTT3=
EXTT4=
EXTT5=
EXTT6=
EXTT7=
EXTT8=
EXTT9=
EXTT10=
PLAYORDER=
